<?xml version="1.0" encoding="utf-8"?>
<!-- Generator: Adobe Illustrator 20.1.0, SVG Export Plug-In . SVG Version: 6.00 Build 0)  -->
<svg version="1.1" id="Layer_1" xmlns="http://www.w3.org/2000/svg" xmlns:xlink="http://www.w3.org/1999/xlink" x="0px" y="0px"
	 width="72px" height="76px" viewBox="0 0 72 76" style="enable-background:new 0 0 72 76;" xml:space="preserve">
<style type="text/css">
	.st0{fill:#FFFFFF;}
</style>
<title>bank</title>
<desc>Created with Sketch.</desc>
<g>
	<path class="st0" d="M9.9,60c-1.1,0-2,0.9-2,2c0,1.1,0.9,2,2,2h12c1.1,0,2-0.9,2-2c0-1.1-0.9-2-2-2h0V30h0c1.1,0,2-0.9,2-2
		c0-1.1-0.9-2-2-2h-12c-1.1,0-2,0.9-2,2c0,1.1,0.9,2,2,2h0L9.9,60L9.9,60z M13.9,30h4v30h-4V30z"/>
	<path class="st0" d="M30.9,60c-1.1,0-2,0.9-2,2c0,1.1,0.9,2,2,2h12c1.1,0,2-0.9,2-2c0-1.1-0.9-2-2-2h0V30h0c1.1,0,2-0.9,2-2
		c0-1.1-0.9-2-2-2h-12c-1.1,0-2,0.9-2,2c0,1.1,0.9,2,2,2h0L30.9,60L30.9,60z M34.9,30h4v30h-4V30z"/>
	<path class="st0" d="M50.9,60c-1.1,0-2,0.9-2,2c0,1.1,0.9,2,2,2h12c1.1,0,2-0.9,2-2c0-1.1-0.9-2-2-2h0V30h0c1.1,0,2-0.9,2-2
		c0-1.1-0.9-2-2-2h-12c-1.1,0-2,0.9-2,2c0,1.1,0.9,2,2,2h0L50.9,60L50.9,60z M54.9,30h4v30h-4V30z"/>
	<path class="st0" d="M4.9,68c0,1.1,0.9,2,2,2h58c1.1,0,2-0.9,2-2c0-1.1-0.9-2-2-2h-58C5.8,66,4.9,66.9,4.9,68z"/>
	<path class="st0" d="M68.9,72h-66c-1.1,0-2,0.9-2,2c0,1.1,0.9,2,2,2h66c1.1,0,2-0.9,2-2C70.9,72.9,70,72,68.9,72z"/>
	<path class="st0" d="M70.5,21.9L35.9,0L1.2,21.9C-0.6,23.1-0.3,24,1.8,24h68.1C72.1,24,72.4,23.1,70.5,21.9z M10.9,20.1l25-15.8
		l25,15.8H10.9z"/>
	<circle class="st0" cx="35.9" cy="13.2" r="3"/>
</g>
</svg>
