<?xml version="1.0" encoding="UTF-8" standalone="no"?>
<svg width="78px" height="71px" viewBox="0 0 78 71" version="1.1" xmlns="http://www.w3.org/2000/svg" xmlns:xlink="http://www.w3.org/1999/xlink" xmlns:sketch="http://www.bohemiancoding.com/sketch/ns">
    <!-- Generator: Sketch 3.4.4 (17249) - http://www.bohemiancoding.com/sketch -->
    <title>healthcare</title>
    <desc>Created with Sketch.</desc>
    <defs></defs>
    <g id="29-08-16_1140" stroke="none" stroke-width="1" fill="none" fill-rule="evenodd" sketch:type="MSPage">
        <g id="Home_page_v4_5__2_hover_state" sketch:type="MSArtboardGroup" transform="translate(-492.000000, -1225.000000)" fill="#FFFFFF">
            <g id="Group" sketch:type="MSLayerGroup" transform="translate(0.000000, 963.000000)">
                <path d="M569.183224,279.781084 C566.54037,269.311954 557.779733,262 547.878618,262 C541.366388,262 535.474831,265.160756 530.994129,270.980049 C526.516004,265.160105 520.627025,262 514.116407,262 C504.219159,262 495.460777,269.311628 492.817601,279.780433 C491.403202,285.382304 491.128314,294.332734 497.850979,305.160871 C504.061574,315.164235 514.823123,324.430384 529.835604,332.701858 C530.196535,332.900402 530.594526,333 530.993162,333 C531.391475,333 531.789788,332.900402 532.150397,332.701858 C547.16739,324.430058 557.93184,315.16391 564.145012,305.160871 C570.8709,294.332734 570.596979,285.382304 569.183224,279.781084 L569.183224,279.781084 Z M530.993365,328.323584 C493.540914,307.244528 495.40914,286.571418 496.89414,280.690664 C499.029115,272.23538 505.985254,266.330103 513.810542,266.330103 C519.727247,266.330103 525.082237,269.826875 528.888575,276.175546 C529.334469,276.919173 530.132419,277.373502 530.993036,277.373502 L530.993365,277.373502 C531.853982,277.373502 532.651932,276.919504 533.097826,276.176208 C536.907445,269.826875 542.265716,266.330103 548.184718,266.330103 C556.013615,266.330103 562.972051,272.23538 565.106698,280.690664 C566.591042,286.571087 568.456643,307.242871 530.993365,328.323584 Z M549.439118,297.869697 L540.986343,297.869697 L537.841976,286.116075 C537.62028,285.287296 536.875944,284.711811 536.026278,284.711811 L536.025024,284.711811 C535.174605,284.712317 534.43052,285.289069 534.209828,286.118608 L529.885508,302.374792 L525.561188,286.118608 C525.342502,285.296414 524.60895,284.721689 523.766055,284.711811 L523.744487,284.711811 C522.91062,284.711811 522.175062,285.267032 521.939824,286.077068 L519.750955,293.617897 L511.265828,293.617897 C510.227068,293.617897 509.384926,294.468206 509.384926,295.517605 C509.384926,296.567004 510.227068,297.417313 511.265828,297.417313 L521.159625,297.417313 C521.994746,297.417313 522.729552,296.861332 522.964539,296.052056 L523.66574,293.636134 L528.069058,310.189179 C528.28975,311.018971 529.034838,311.595976 529.885508,311.595976 C530.736428,311.595976 531.481265,311.019225 531.701958,310.189179 L536.031294,293.913998 L537.730376,300.265103 C537.952071,301.093629 538.696156,301.669367 539.546073,301.669367 L549.438868,301.669367 C550.477627,301.669367 551.31977,300.819057 551.31977,299.769659 C551.320021,298.72026 550.478129,297.869697 549.439118,297.869697 Z" id="healthcare" sketch:type="MSShapeGroup"></path>
            </g>
        </g>
    </g>
</svg>