<?xml version="1.0" encoding="UTF-8" standalone="no"?>
<svg width="66px" height="71px" viewBox="0 0 66 71" version="1.1" xmlns="http://www.w3.org/2000/svg" xmlns:xlink="http://www.w3.org/1999/xlink" xmlns:sketch="http://www.bohemiancoding.com/sketch/ns">
    <!-- Generator: Sketch 3.4.4 (17249) - http://www.bohemiancoding.com/sketch -->
    <title>retail</title>
    <desc>Created with Sketch.</desc>
    <defs></defs>
    <g id="29-08-16_1140" stroke="none" stroke-width="1" fill="none" fill-rule="evenodd" sketch:type="MSPage">
        <g id="Home_page_v4_5__2_hover_state" sketch:type="MSArtboardGroup" transform="translate(-1058.000000, -1221.000000)" fill="#FFFFFF">
            <g id="Group" sketch:type="MSLayerGroup" transform="translate(0.000000, 963.000000)">
                <path d="M1076.8101,304.748171 L1115.94283,304.748171 C1120.38011,304.748171 1124,301.129361 1124,296.6934 L1124,280.23365 L1124,280.175282 L1124,280.058546 C1124,280.029362 1124,280.000178 1123.9854,279.970994 C1123.9854,279.94181 1123.97081,279.898034 1123.97081,279.86885 C1123.97081,279.839667 1123.95621,279.810483 1123.95621,279.781299 C1123.94161,279.752115 1123.94161,279.722931 1123.92702,279.679155 C1123.91242,279.649971 1123.91242,279.620787 1123.89783,279.591603 C1123.88323,279.562419 1123.88323,279.533235 1123.86863,279.504051 C1123.85404,279.474867 1123.83944,279.445683 1123.82484,279.401907 C1123.81025,279.372723 1123.79565,279.343539 1123.78106,279.328947 C1123.76646,279.299763 1123.75186,279.270579 1123.73727,279.241395 C1123.72267,279.212211 1123.70807,279.19762 1123.69348,279.168436 C1123.67888,279.139252 1123.64969,279.110068 1123.63509,279.080884 C1123.6205,279.0517 1123.6059,279.037108 1123.57671,279.007924 C1123.56211,278.97874 1123.53292,278.964148 1123.51832,278.934964 C1123.50373,278.90578 1123.47453,278.891188 1123.45994,278.862004 C1123.44534,278.83282 1123.41615,278.818228 1123.40155,278.803636 C1123.37236,278.774452 1123.35776,278.75986 1123.32857,278.730676 C1123.29938,278.716084 1123.28478,278.6869 1123.25559,278.672308 C1123.2264,278.657716 1123.1972,278.628532 1123.16801,278.61394 C1123.13882,278.599348 1123.12422,278.584756 1123.09503,278.570165 C1123.06584,278.555573 1123.03664,278.540981 1123.00745,278.511797 C1122.97826,278.497205 1122.94906,278.482613 1122.91987,278.468021 C1122.89068,278.453429 1122.86149,278.438837 1122.83229,278.424245 C1122.8031,278.409653 1122.77391,278.395061 1122.74472,278.380469 C1122.71552,278.365877 1122.68633,278.365877 1122.65714,278.351285 C1122.62795,278.336693 1122.58416,278.322101 1122.55496,278.322101 C1122.52577,278.322101 1122.49658,278.307509 1122.48198,278.307509 C1122.43819,278.292917 1122.409,278.292917 1122.36521,278.292917 C1122.35062,278.292917 1122.33602,278.278325 1122.30683,278.278325 L1072.70853,271.434688 L1072.70853,264.518091 C1072.70853,264.445131 1072.70853,264.372171 1072.69393,264.313803 C1072.69393,264.299211 1072.69393,264.284619 1072.67934,264.255435 C1072.67934,264.211659 1072.66474,264.167883 1072.66474,264.124107 C1072.65014,264.080331 1072.65014,264.051147 1072.63555,264.007371 C1072.63555,263.978188 1072.62095,263.963596 1072.62095,263.934412 C1072.60636,263.890636 1072.59176,263.84686 1072.57716,263.803084 C1072.57716,263.788492 1072.56257,263.759308 1072.56257,263.744716 C1072.54797,263.70094 1072.53337,263.671756 1072.50418,263.62798 C1072.48958,263.613388 1072.48958,263.584204 1072.47499,263.569612 C1072.46039,263.540428 1072.4458,263.511244 1072.4166,263.48206 C1072.40201,263.452876 1072.38741,263.438284 1072.37281,263.4091 C1072.35822,263.379916 1072.34362,263.365324 1072.32903,263.336141 C1072.31443,263.306957 1072.28524,263.277773 1072.27064,263.248589 C1072.25604,263.233997 1072.24145,263.219405 1072.22685,263.204813 C1072.19766,263.175629 1072.16847,263.146445 1072.13927,263.117261 C1072.12468,263.102669 1072.11008,263.088077 1072.09548,263.073485 C1072.06629,263.044301 1072.0371,263.015117 1071.99331,262.985933 C1071.97871,262.971341 1071.94952,262.956749 1071.93492,262.942157 C1071.90573,262.912973 1071.87654,262.898381 1071.84735,262.869197 C1071.80356,262.840013 1071.75977,262.810829 1071.73058,262.796237 C1071.71598,262.781645 1071.70138,262.781645 1071.68679,262.767053 C1071.6284,262.737869 1071.55542,262.708686 1071.49704,262.679502 L1060.73955,258.155989 C1059.7324,257.732821 1058.57929,258.199765 1058.156,259.206611 C1057.7327,260.213457 1058.19979,261.366224 1059.20693,261.789391 L1068.75293,265.816777 L1068.75293,274.747067 L1068.75293,276.162488 L1068.75293,287.018919 L1068.75293,296.722584 L1068.75293,308.979845 C1068.75293,313.065598 1071.81815,316.450937 1075.77376,316.961656 C1075.05854,318.158198 1074.63524,319.559028 1074.63524,321.04741 C1074.63524,325.439595 1078.21134,329.000037 1082.59024,329.000037 C1086.96913,329.000037 1090.54523,325.425003 1090.54523,321.04741 C1090.54523,319.588212 1090.15113,318.201974 1089.45051,317.034616 L1107.17044,317.034616 C1106.46982,318.216566 1106.07572,319.588212 1106.07572,321.04741 C1106.07572,325.439595 1109.65182,329.000037 1114.03071,329.000037 C1118.40961,329.000037 1121.98571,325.425003 1121.98571,321.04741 C1121.98571,316.669816 1118.40961,313.094782 1114.03071,313.094782 L1076.8101,313.094782 C1074.53307,313.094782 1072.69393,311.241601 1072.69393,308.979845 L1072.69393,303.639181 C1073.89083,304.339596 1075.30667,304.748171 1076.8101,304.748171 L1076.8101,304.748171 Z M1086.61882,321.032818 C1086.61882,323.250798 1084.80888,325.045611 1082.60484,325.045611 C1080.40079,325.045611 1078.59085,323.236206 1078.59085,321.032818 C1078.59085,318.829429 1080.40079,317.020024 1082.60484,317.020024 C1084.80888,317.020024 1086.61882,318.814837 1086.61882,321.032818 L1086.61882,321.032818 Z M1118.0593,321.032818 C1118.0593,323.250798 1116.24935,325.045611 1114.04531,325.045611 C1111.84127,325.045611 1110.03132,323.236206 1110.03132,321.032818 C1110.03132,318.829429 1111.84127,317.020024 1114.04531,317.020024 C1116.24935,317.020024 1118.0593,318.814837 1118.0593,321.032818 L1118.0593,321.032818 Z M1076.8101,300.808337 C1074.53307,300.808337 1072.69393,298.955156 1072.69393,296.6934 L1072.69393,286.989735 L1072.69393,276.133304 L1072.69393,275.403706 L1120.05899,281.926319 L1120.05899,296.678808 C1120.05899,298.969748 1118.20526,300.808337 1115.94283,300.808337 L1076.8101,300.808337 Z" id="retail" sketch:type="MSShapeGroup"></path>
            </g>
        </g>
    </g>
</svg>