<?xml version="1.0" encoding="UTF-8" standalone="no"?>
<svg width="70px" height="82px" viewBox="0 0 70 82" version="1.1" xmlns="http://www.w3.org/2000/svg" xmlns:xlink="http://www.w3.org/1999/xlink" xmlns:sketch="http://www.bohemiancoding.com/sketch/ns">
    <!-- Generator: Sketch 3.4.4 (17249) - http://www.bohemiancoding.com/sketch -->
    <title>telecom</title>
    <desc>Created with Sketch.</desc>
    <defs></defs>
    <g id="29-08-16_1140" stroke="none" stroke-width="1" fill="none" fill-rule="evenodd" sketch:type="MSPage">
        <g id="Home_page_v4_5__2_hover_state" sketch:type="MSArtboardGroup" transform="translate(-1338.000000, -1216.000000)" fill="#FFFFFF">
            <g id="Group" sketch:type="MSLayerGroup" transform="translate(0.000000, 963.000000)">
                <path d="M1362.01813,323 L1366.18198,312 L1379.81757,312 L1383.98151,323 L1362.01813,323 Z M1360.50401,327 L1357.97259,333.687444 C1357.6754,334.472435 1356.90324,335 1356.05098,335 C1355.80678,335 1355.56649,334.957296 1355.33645,334.873327 C1354.82315,334.685956 1354.41484,334.313133 1354.187,333.823954 C1353.95916,333.334774 1353.9389,332.787776 1354.12962,332.283482 L1369.15028,292.602326 C1367.83588,291.501696 1367,289.848464 1367,288 C1367,284.686292 1369.68629,282 1373,282 C1376.31371,282 1379,284.686292 1379,288 C1379,289.848418 1378.16416,291.501615 1376.84981,292.602245 L1391.87051,332.283482 C1392.06123,332.787536 1392.04072,333.334774 1391.81264,333.823954 C1391.58455,334.313133 1391.17649,334.685956 1390.66319,334.873327 C1390.4329,334.957056 1390.19286,335 1389.94866,335 C1389.0964,335 1388.32424,334.472195 1388.02704,333.687204 L1385.49567,327 L1360.50401,327 Z M1367.69611,308 L1372.99555,293.999998 C1372.99704,293.999999 1372.99852,294 1373,294 C1373.00128,294 1373.00256,294 1373.00384,293.999999 L1378.3034,308 L1367.69611,308 Z M1373.49963,265 C1367.22242,265 1361.32102,267.432181 1356.88288,271.848868 C1352.44426,276.265556 1349.99975,282.137549 1350,288.383498 C1349.99975,291.985634 1350.79971,295.438384 1352.3768,298.646304 C1352.4737,298.84329 1352.66626,298.976079 1352.88533,298.997071 C1352.90569,298.999024 1352.9258,299 1352.94592,299 C1353.14364,299 1353.3313,298.907976 1353.45174,298.749068 L1355.1905,296.455291 C1355.32517,296.277344 1355.35583,296.042279 1355.27071,295.836261 C1354.2961,293.475601 1353.80205,290.968483 1353.80205,288.383986 C1353.80205,283.148353 1355.85087,278.226141 1359.57123,274.524657 C1363.29158,270.822685 1368.238,268.783989 1373.49963,268.783989 C1384.36118,268.783989 1393.19771,277.5766 1393.19771,288.383986 C1393.19771,290.951152 1392.70047,293.454121 1391.71997,295.823324 C1391.63435,296.029586 1391.66477,296.265383 1391.79969,296.443086 L1393.54016,298.739305 C1393.67287,298.914566 1393.88801,299.010252 1394.10658,298.987551 C1394.32589,298.966559 1394.51845,298.834014 1394.6151,298.637028 C1396.19759,295.423494 1397,291.973918 1397,288.383986 C1396.99951,275.489816 1386.4576,265 1373.49963,265 Z M1348.25098,263.478274 C1341.6404,270.235427 1337.99976,279.219672 1338,288.775927 C1337.99976,296.382894 1340.29276,303.632019 1344.63117,309.739328 C1344.74611,309.901606 1344.92977,309.998531 1345.12588,310 C1345.32558,310 1345.50829,309.90699 1345.62538,309.748629 L1347.18901,307.629232 C1347.34968,307.411639 1347.35567,307.113763 1347.20409,306.889561 C1343.61014,301.565981 1341.7108,295.302513 1341.71104,288.775927 C1341.7108,280.232988 1344.96521,272.201358 1350.87491,266.160869 C1356.78484,260.12038 1364.64201,256.793816 1372.9994,256.793816 C1390.25247,256.793816 1404.28872,271.140803 1404.28872,288.775927 C1404.28872,295.270694 1402.38483,301.528777 1398.78274,306.873162 C1398.6314,307.097609 1398.63811,307.39524 1398.79806,307.612589 L1400.36145,309.731496 C1400.4795,309.89157 1400.67154,309.986293 1400.86119,309.982867 C1401.0573,309.980909 1401.24096,309.884227 1401.35614,309.72195 C1405.70245,303.590899 1408,296.347648 1408,288.775682 C1408.00024,269.049064 1392.29883,253 1372.99964,253 C1363.65092,253 1354.86156,256.721366 1348.25098,263.478274 Z" id="telecom" sketch:type="MSShapeGroup"></path>
            </g>
        </g>
    </g>
</svg>